<mxfile host="Electron" modified="2024-04-05T13:58:15.827Z" agent="Mozilla/5.0 (Windows NT 10.0; Win64; x64) AppleWebKit/537.36 (KHTML, like Gecko) draw.io/24.1.0 Chrome/120.0.6099.109 Electron/28.1.0 Safari/537.36" version="24.1.0" etag="wJ7S6ZyiIa5M---Rwa9l" type="device">
  <diagram id="prtHgNgQTEPvFCAcTncT" name="Page-1">
    <mxGraphModel dx="1561" dy="901" grid="1" gridSize="10" guides="1" tooltips="1" connect="1" arrows="1" fold="1" page="1" pageScale="1" pageWidth="827" pageHeight="1169" math="0" shadow="0">
      <root>
        <mxCell id="0" />
        <mxCell id="1" parent="0" />
        <mxCell id="Ru0skmezqaz2asFFrIFv-1" value="Epic" style="shape=umlLifeline;perimeter=lifelinePerimeter;whiteSpace=wrap;html=1;container=1;dropTarget=0;collapsible=0;recursiveResize=0;outlineConnect=0;portConstraint=eastwest;newEdgeStyle={&quot;curved&quot;:0,&quot;rounded&quot;:0};" vertex="1" parent="1">
          <mxGeometry x="110" y="80" width="130" height="550" as="geometry" />
        </mxCell>
        <mxCell id="Ru0skmezqaz2asFFrIFv-2" value="Databricks" style="shape=umlLifeline;perimeter=lifelinePerimeter;whiteSpace=wrap;html=1;container=1;dropTarget=0;collapsible=0;recursiveResize=0;outlineConnect=0;portConstraint=eastwest;newEdgeStyle={&quot;curved&quot;:0,&quot;rounded&quot;:0};" vertex="1" parent="1">
          <mxGeometry x="314" y="80" width="100" height="550" as="geometry" />
        </mxCell>
        <mxCell id="Ru0skmezqaz2asFFrIFv-6" value="" style="html=1;points=[[0,0,0,0,5],[0,1,0,0,-5],[1,0,0,0,5],[1,1,0,0,-5]];perimeter=orthogonalPerimeter;outlineConnect=0;targetShapes=umlLifeline;portConstraint=eastwest;newEdgeStyle={&quot;curved&quot;:0,&quot;rounded&quot;:0};" vertex="1" parent="Ru0skmezqaz2asFFrIFv-2">
          <mxGeometry x="45" y="210" width="10" height="210" as="geometry" />
        </mxCell>
        <mxCell id="Ru0skmezqaz2asFFrIFv-3" value="OpenAI" style="shape=umlLifeline;whiteSpace=wrap;html=1;container=1;dropTarget=0;collapsible=0;recursiveResize=0;outlineConnect=0;portConstraint=eastwest;newEdgeStyle={&quot;curved&quot;:0,&quot;rounded&quot;:0};points=[[0,0,0,0,5],[0,1,0,0,-5],[1,0,0,0,5],[1,1,0,0,-5]];perimeter=rectanglePerimeter;targetShapes=umlLifeline;participant=label;" vertex="1" parent="1">
          <mxGeometry x="510" y="80" width="100" height="540" as="geometry" />
        </mxCell>
        <mxCell id="Ru0skmezqaz2asFFrIFv-9" value="" style="html=1;points=[[0,0,0,0,5],[0,1,0,0,-5],[1,0,0,0,5],[1,1,0,0,-5]];perimeter=orthogonalPerimeter;outlineConnect=0;targetShapes=umlLifeline;portConstraint=eastwest;newEdgeStyle={&quot;curved&quot;:0,&quot;rounded&quot;:0};" vertex="1" parent="Ru0skmezqaz2asFFrIFv-3">
          <mxGeometry x="45" y="250" width="10" height="80" as="geometry" />
        </mxCell>
        <mxCell id="Ru0skmezqaz2asFFrIFv-4" value="prep/extract data" style="html=1;verticalAlign=bottom;endArrow=block;curved=0;rounded=0;dashed=1;dashPattern=8 8;" edge="1" parent="1">
          <mxGeometry width="80" relative="1" as="geometry">
            <mxPoint x="180" y="240" as="sourcePoint" />
            <mxPoint x="363.5" y="240" as="targetPoint" />
            <mxPoint as="offset" />
          </mxGeometry>
        </mxCell>
        <mxCell id="Ru0skmezqaz2asFFrIFv-5" value="LabResults" style="html=1;verticalAlign=bottom;startArrow=oval;startFill=1;endArrow=block;startSize=8;curved=0;rounded=0;entryX=0.5;entryY=0.2;entryDx=0;entryDy=0;entryPerimeter=0;" edge="1" parent="1" target="Ru0skmezqaz2asFFrIFv-1">
          <mxGeometry width="60" relative="1" as="geometry">
            <mxPoint x="70" y="190" as="sourcePoint" />
            <mxPoint x="150" y="190" as="targetPoint" />
          </mxGeometry>
        </mxCell>
        <mxCell id="Ru0skmezqaz2asFFrIFv-7" value="get summary" style="html=1;verticalAlign=bottom;endArrow=block;curved=0;rounded=0;entryX=0;entryY=0;entryDx=0;entryDy=5;" edge="1" target="Ru0skmezqaz2asFFrIFv-6" parent="1" source="Ru0skmezqaz2asFFrIFv-1">
          <mxGeometry relative="1" as="geometry">
            <mxPoint x="270" y="295" as="sourcePoint" />
          </mxGeometry>
        </mxCell>
        <mxCell id="Ru0skmezqaz2asFFrIFv-8" value="return" style="html=1;verticalAlign=bottom;endArrow=open;dashed=1;endSize=8;curved=0;rounded=0;" edge="1" source="Ru0skmezqaz2asFFrIFv-6" parent="1" target="Ru0skmezqaz2asFFrIFv-1">
          <mxGeometry relative="1" as="geometry">
            <mxPoint x="270" y="365" as="targetPoint" />
            <Array as="points">
              <mxPoint x="260" y="500" />
            </Array>
          </mxGeometry>
        </mxCell>
        <mxCell id="Ru0skmezqaz2asFFrIFv-10" value="getSummary()" style="html=1;verticalAlign=bottom;endArrow=block;curved=0;rounded=0;entryX=0;entryY=0;entryDx=0;entryDy=5;" edge="1" target="Ru0skmezqaz2asFFrIFv-9" parent="1" source="Ru0skmezqaz2asFFrIFv-2">
          <mxGeometry relative="1" as="geometry">
            <mxPoint x="485" y="335" as="sourcePoint" />
          </mxGeometry>
        </mxCell>
        <mxCell id="Ru0skmezqaz2asFFrIFv-11" value="return" style="html=1;verticalAlign=bottom;endArrow=open;dashed=1;endSize=8;curved=0;rounded=0;exitX=0;exitY=1;exitDx=0;exitDy=-5;" edge="1" source="Ru0skmezqaz2asFFrIFv-9" parent="1" target="Ru0skmezqaz2asFFrIFv-2">
          <mxGeometry relative="1" as="geometry">
            <mxPoint x="485" y="405" as="targetPoint" />
          </mxGeometry>
        </mxCell>
        <mxCell id="Ru0skmezqaz2asFFrIFv-12" value="IDP" style="shape=cylinder3;whiteSpace=wrap;html=1;boundedLbl=1;backgroundOutline=1;size=15;" vertex="1" parent="1">
          <mxGeometry x="430" y="160" width="60" height="80" as="geometry" />
        </mxCell>
        <mxCell id="Ru0skmezqaz2asFFrIFv-13" value="" style="endArrow=classic;html=1;rounded=0;" edge="1" parent="1">
          <mxGeometry width="50" height="50" relative="1" as="geometry">
            <mxPoint x="370" y="260" as="sourcePoint" />
            <mxPoint x="420" y="210" as="targetPoint" />
          </mxGeometry>
        </mxCell>
        <mxCell id="Ru0skmezqaz2asFFrIFv-14" value="" style="endArrow=classic;html=1;rounded=0;entryX=-0.143;entryY=0.32;entryDx=0;entryDy=0;entryPerimeter=0;" edge="1" parent="1" target="Ru0skmezqaz2asFFrIFv-12">
          <mxGeometry width="50" height="50" relative="1" as="geometry">
            <mxPoint x="180" y="190" as="sourcePoint" />
            <mxPoint x="230" y="140" as="targetPoint" />
          </mxGeometry>
        </mxCell>
      </root>
    </mxGraphModel>
  </diagram>
</mxfile>
